<svg class="lds-gear-set" width="200px"  height="200px"  xmlns="http://www.w3.org/2000/svg" xmlns:xlink="http://www.w3.org/1999/xlink" viewBox="0 0 100 100" preserveAspectRatio="xMidYMid" style="background: none;"><g transform="translate(50 50)"> <g transform="translate(-17 -17) scale(0.5)"> <g transform="rotate(70)">
<animateTransform attributeName="transform" type="rotate" values="0;360" keyTimes="0;1" dur="2.4s" begin="0s" repeatCount="indefinite"></animateTransform><path d="M37.25251669350676 -7.5 L52.25251669350676 -7.5 L52.25251669350676 7.5 L37.25251669350676 7.5 A38 38 0 0 1 31.6448080291428 21.038206311344588 L31.6448080291428 21.038206311344588 L42.251409746941015 31.6448080291428 L31.6448080291428 42.251409746941015 L21.038206311344588 31.6448080291428 A38 38 0 0 1 7.499999999999998 37.25251669350676 L7.499999999999998 37.25251669350676 L7.499999999999999 52.25251669350676 L-7.499999999999993 52.25251669350676 L-7.499999999999994 37.25251669350676 A38 38 0 0 1 -21.038206311344588 31.6448080291428 L-21.038206311344588 31.6448080291428 L-31.6448080291428 42.251409746941015 L-42.25140974694101 31.6448080291428 L-31.644808029142798 21.03820631134459 A38 38 0 0 1 -37.25251669350676 7.5 L-37.25251669350676 7.5 L-52.25251669350676 7.500000000000002 L-52.25251669350676 -7.49999999999999 L-37.25251669350676 -7.499999999999992 A38 38 0 0 1 -31.6448080291428 -21.038206311344588 L-31.6448080291428 -21.038206311344588 L-42.251409746941015 -31.6448080291428 L-31.644808029142794 -42.251409746941015 L-21.038206311344585 -31.644808029142805 A38 38 0 0 1 -7.5000000000000195 -37.252516693506756 L-7.5000000000000195 -37.252516693506756 L-7.500000000000022 -52.252516693506756 L7.500000000000003 -52.25251669350676 L7.500000000000005 -37.25251669350676 A38 38 0 0 1 21.038206311344574 -31.644808029142816 L21.038206311344574 -31.644808029142816 L31.644808029142784 -42.25140974694103 L42.251409746941015 -31.6448080291428 L31.644808029142805 -21.038206311344585 A38 38 0 0 1 37.252516693506756 -7.500000000000021 M0 -23A23 23 0 1 0 0 23 A23 23 0 1 0 0 -23" fill="#FF9800"></path></g></g> <g transform="translate(0 22) scale(0.4)"> <g transform="rotate(267.5)">
<animateTransform attributeName="transform" type="rotate" values="360;0" keyTimes="0;1" dur="2.4s" begin="-0.15s" repeatCount="indefinite"></animateTransform><path d="M37.25251669350676 -7.5 L52.25251669350676 -7.5 L52.25251669350676 7.5 L37.25251669350676 7.5 A38 38 0 0 1 31.6448080291428 21.038206311344588 L31.6448080291428 21.038206311344588 L42.251409746941015 31.6448080291428 L31.6448080291428 42.251409746941015 L21.038206311344588 31.6448080291428 A38 38 0 0 1 7.499999999999998 37.25251669350676 L7.499999999999998 37.25251669350676 L7.499999999999999 52.25251669350676 L-7.499999999999993 52.25251669350676 L-7.499999999999994 37.25251669350676 A38 38 0 0 1 -21.038206311344588 31.6448080291428 L-21.038206311344588 31.6448080291428 L-31.6448080291428 42.251409746941015 L-42.25140974694101 31.6448080291428 L-31.644808029142798 21.03820631134459 A38 38 0 0 1 -37.25251669350676 7.5 L-37.25251669350676 7.5 L-52.25251669350676 7.500000000000002 L-52.25251669350676 -7.49999999999999 L-37.25251669350676 -7.499999999999992 A38 38 0 0 1 -31.6448080291428 -21.038206311344588 L-31.6448080291428 -21.038206311344588 L-42.251409746941015 -31.6448080291428 L-31.644808029142794 -42.251409746941015 L-21.038206311344585 -31.644808029142805 A38 38 0 0 1 -7.5000000000000195 -37.252516693506756 L-7.5000000000000195 -37.252516693506756 L-7.500000000000022 -52.252516693506756 L7.500000000000003 -52.25251669350676 L7.500000000000005 -37.25251669350676 A38 38 0 0 1 21.038206311344574 -31.644808029142816 L21.038206311344574 -31.644808029142816 L31.644808029142784 -42.25140974694103 L42.251409746941015 -31.6448080291428 L31.644808029142805 -21.038206311344585 A38 38 0 0 1 37.252516693506756 -7.500000000000021 M0 -23A23 23 0 1 0 0 23 A23 23 0 1 0 0 -23" fill="#050708"></path></g></g> <g transform="translate(28 4) scale(0.3)"> <g transform="rotate(92.5)">
<animateTransform attributeName="transform" type="rotate" values="0;360" keyTimes="0;1" dur="2.4s" begin="-0.15s" repeatCount="indefinite"></animateTransform><path d="M37.25251669350676 -7.5 L52.25251669350676 -7.5 L52.25251669350676 7.5 L37.25251669350676 7.5 A38 38 0 0 1 31.6448080291428 21.038206311344588 L31.6448080291428 21.038206311344588 L42.251409746941015 31.6448080291428 L31.6448080291428 42.251409746941015 L21.038206311344588 31.6448080291428 A38 38 0 0 1 7.499999999999998 37.25251669350676 L7.499999999999998 37.25251669350676 L7.499999999999999 52.25251669350676 L-7.499999999999993 52.25251669350676 L-7.499999999999994 37.25251669350676 A38 38 0 0 1 -21.038206311344588 31.6448080291428 L-21.038206311344588 31.6448080291428 L-31.6448080291428 42.251409746941015 L-42.25140974694101 31.6448080291428 L-31.644808029142798 21.03820631134459 A38 38 0 0 1 -37.25251669350676 7.5 L-37.25251669350676 7.5 L-52.25251669350676 7.500000000000002 L-52.25251669350676 -7.49999999999999 L-37.25251669350676 -7.499999999999992 A38 38 0 0 1 -31.6448080291428 -21.038206311344588 L-31.6448080291428 -21.038206311344588 L-42.251409746941015 -31.6448080291428 L-31.644808029142794 -42.251409746941015 L-21.038206311344585 -31.644808029142805 A38 38 0 0 1 -7.5000000000000195 -37.252516693506756 L-7.5000000000000195 -37.252516693506756 L-7.500000000000022 -52.252516693506756 L7.500000000000003 -52.25251669350676 L7.500000000000005 -37.25251669350676 A38 38 0 0 1 21.038206311344574 -31.644808029142816 L21.038206311344574 -31.644808029142816 L31.644808029142784 -42.25140974694103 L42.251409746941015 -31.6448080291428 L31.644808029142805 -21.038206311344585 A38 38 0 0 1 37.252516693506756 -7.500000000000021 M0 -23A23 23 0 1 0 0 23 A23 23 0 1 0 0 -23" fill="#eeb440"></path></g></g></g></svg>